<svg width="1387" height="1519" viewBox="0 0 1387 1519" fill="none" xmlns="http://www.w3.org/2000/svg">
<path d="M462.423 83.251C462.423 83.251 719.088 -88.0188 938.108 63.7301" stroke="#FFD274" stroke-width="0.00256223" stroke-miterlimit="2.28659" stroke-linecap="round" stroke-linejoin="round"/>
<path d="M495.983 190.171C563.383 153.753 745.984 73.9238 914.596 167.677" stroke="#FFD274" stroke-width="0.00256223" stroke-miterlimit="2.28659" stroke-linecap="round" stroke-linejoin="round"/>
<path fill-rule="evenodd" clip-rule="evenodd" d="M933.231 54.1496C933.836 51.5388 936.44 49.9091 939.056 50.5146L948.516 52.7041C951.124 53.3078 952.756 55.9178 952.151 58.5286L889.601 328.787C888.997 331.398 886.385 333.026 883.776 332.422L874.316 330.232C871.7 329.627 870.077 327.019 870.681 324.408L933.231 54.1496Z" fill="#A52929"/>
<path fill-rule="evenodd" clip-rule="evenodd" d="M470.41 73.1098C469.741 70.5149 467.097 68.9504 464.497 69.6206L455.094 72.0445C452.501 72.7128 450.935 75.3625 451.604 77.9574L520.848 346.579C521.517 349.174 524.169 350.736 526.761 350.068L536.164 347.644C538.764 346.974 540.323 344.326 539.654 341.731L470.41 73.1098Z" fill="#A52929"/>
<path fill-rule="evenodd" clip-rule="evenodd" d="M185.194 119.717C185.194 119.717 195.48 99.6279 210.942 108.94C210.942 108.94 217.351 104.386 220.505 102.145C220.752 101.97 221.084 101.972 221.33 102.15C221.576 102.329 221.679 102.644 221.588 102.933C220.494 106.425 218.351 113.258 218.351 113.258C218.351 113.258 232.192 148.191 210.978 173.693C204.853 181.058 167.971 218.234 133.018 179.948C131.2 177.953 130.373 175.248 130.763 172.578C131.505 167.398 133.634 158.744 139.573 153.695L151.068 160.359C146.684 155.537 142.527 150.537 139.573 144.61C139.573 144.61 131.202 110.696 155.053 86.7344C155.49 86.3 156.107 86.0986 156.716 86.1934C157.326 86.2882 157.854 86.6663 158.138 87.2132C161.88 94.4537 174.013 116.362 185.194 119.717Z" fill="#69BAC9"/>
<path fill-rule="evenodd" clip-rule="evenodd" d="M138.768 120.836C141.578 126.734 148.14 138.922 157.269 145.948C158.133 146.612 158.294 147.853 157.629 148.717C156.965 149.58 155.724 149.742 154.86 149.077C147.638 143.518 141.85 134.753 138.181 128.194C138.256 125.581 138.483 123.201 138.768 120.836ZM142.835 105.056C144.195 108.651 151.315 126.434 162.43 135.992C163.257 136.703 163.351 137.95 162.641 138.776C161.93 139.603 160.682 139.696 159.856 138.987C150.651 131.071 144.01 117.826 140.885 110.677C141.466 108.665 142.121 106.793 142.835 105.056ZM150.434 92.0439C150.477 92.1288 150.514 92.2197 150.545 92.3134C150.545 92.3134 157.346 113.201 169.908 124.333C170.723 125.056 170.798 126.304 170.076 127.12C169.353 127.935 168.104 128.011 167.289 127.289C156.726 117.928 149.981 102.056 147.678 95.9939C148.659 94.4686 149.582 93.1664 150.434 92.0439Z" fill="white"/>
<path fill-rule="evenodd" clip-rule="evenodd" d="M185.193 119.717L187.344 116.295C187.344 116.295 191.497 118.819 195.021 119.328C196.1 119.484 196.85 120.486 196.694 121.564C196.539 122.643 195.537 123.392 194.458 123.236C190.61 122.681 185.193 119.717 185.193 119.717Z" fill="black"/>
<path fill-rule="evenodd" clip-rule="evenodd" d="M140.736 154.37C140.736 154.37 150.96 169.598 166.784 172.814C167.852 173.03 168.944 172.934 169.445 171.967C169.945 170.998 169.64 169.622 168.597 169.305C156.103 165.509 150.94 160.219 150.94 160.219L140.736 154.37Z" fill="black"/>
<path fill-rule="evenodd" clip-rule="evenodd" d="M1230.91 297.151C1230.91 297.151 1220.63 277.062 1205.17 286.374C1205.17 286.374 1198.76 281.821 1195.6 279.579C1195.36 279.404 1195.02 279.406 1194.78 279.584C1194.53 279.763 1194.43 280.078 1194.52 280.367C1195.61 283.859 1197.76 290.692 1197.76 290.692C1197.76 290.692 1183.92 325.625 1205.13 351.127C1211.26 358.492 1248.14 395.668 1283.09 357.382C1284.91 355.387 1285.74 352.682 1285.35 350.012C1284.6 344.832 1282.47 336.178 1276.54 331.129L1265.04 337.794C1269.42 332.971 1273.58 327.971 1276.54 322.044C1276.54 322.044 1284.91 288.13 1261.06 264.168C1260.62 263.734 1260 263.533 1259.39 263.628C1258.78 263.722 1258.25 264.1 1257.97 264.647C1254.23 271.888 1242.1 293.796 1230.91 297.151Z" fill="#69BAC9"/>
<path fill-rule="evenodd" clip-rule="evenodd" d="M1277.34 298.27C1274.53 304.168 1267.97 316.357 1258.84 323.382C1257.98 324.046 1257.81 325.287 1258.48 326.151C1259.14 327.014 1260.38 327.176 1261.25 326.511C1268.47 320.952 1274.26 312.187 1277.93 305.628C1277.85 303.015 1277.63 300.636 1277.34 298.27ZM1273.27 282.49C1271.91 286.086 1264.79 303.868 1253.68 313.426C1252.85 314.137 1252.76 315.384 1253.47 316.21C1254.18 317.037 1255.43 317.13 1256.25 316.421C1265.46 308.505 1272.1 295.26 1275.22 288.111C1274.64 286.099 1273.99 284.228 1273.27 282.49ZM1265.67 269.478C1265.63 269.563 1265.59 269.654 1265.56 269.748C1265.56 269.748 1258.76 290.635 1246.2 301.767C1245.39 302.49 1245.31 303.738 1246.03 304.554C1246.76 305.369 1248 305.445 1248.82 304.723C1259.38 295.362 1266.13 279.49 1268.43 273.428C1267.45 271.903 1266.53 270.601 1265.67 269.478Z" fill="white"/>
<path fill-rule="evenodd" clip-rule="evenodd" d="M1230.92 297.152L1228.76 293.73C1228.76 293.73 1224.61 296.255 1221.09 296.763C1220.01 296.919 1219.26 297.921 1219.41 298.999C1219.57 300.078 1220.57 300.828 1221.65 300.672C1225.5 300.117 1230.92 297.152 1230.92 297.152Z" fill="black"/>
<path fill-rule="evenodd" clip-rule="evenodd" d="M1275.37 331.804C1275.37 331.804 1265.15 347.033 1249.32 350.248C1248.26 350.464 1247.16 350.368 1246.66 349.401C1246.16 348.432 1246.47 347.056 1247.51 346.739C1260.01 342.943 1265.17 337.653 1265.17 337.653L1275.37 331.804Z" fill="black"/>
<path fill-rule="evenodd" clip-rule="evenodd" d="M25.1091 1096.38L25.6765 1021.07H31.5998L31.0324 1097.87C31.0324 1098.83 30.5594 1099.74 29.764 1100.29C29.764 1100.29 11.3619 1112.97 6.82331 1130.66C47.1457 1111.41 74.1366 1104.32 111.252 1102.88C136.17 1101.9 160.896 1108.09 187.369 1118.38L184.958 1021.25L190.879 1021.07L193.422 1122.69C193.451 1123.69 192.975 1124.64 192.156 1125.21C191.337 1125.78 190.285 1125.9 189.358 1125.53C162.137 1114.61 136.923 1107.8 111.484 1108.79C73.6369 1110.28 46.563 1117.79 4.26269 1138.48C3.30711 1138.94 2.17509 1138.87 1.29485 1138.26C0.415562 1137.66 -0.0746494 1136.64 0.00927413 1135.58C1.57807 1115.86 20.0565 1100.29 25.1091 1096.38Z" fill="#FF7867"/>
<path fill-rule="evenodd" clip-rule="evenodd" d="M770.82 1489.98C767.838 1483.44 758.222 1469.48 729.276 1464.02C728.121 1463.8 727.203 1462.91 726.946 1461.77L703.578 1359.47L709.294 1357.76L732.287 1458.58C773.791 1467.13 777.889 1492.42 777.889 1492.42C778.037 1493.28 777.8 1494.17 777.237 1494.84C776.674 1495.51 775.845 1495.91 774.966 1495.91H571.287C569.935 1495.91 568.76 1494.99 568.414 1493.69L545.48 1406.7L550.9 1405.07L573.578 1489.98H770.82Z" fill="#FF7867"/>
<path fill-rule="evenodd" clip-rule="evenodd" d="M25.5909 1021.07H190.878V724.093L414.403 872.006L545.48 1406.7L709.294 1357.76L596.422 743.689L357.262 587.299C357.262 587.299 252.388 533.261 159.288 485.289C129.51 469.945 93.868 471.332 65.3721 488.945C36.8762 506.556 19.697 537.817 20.1058 571.313C22.3044 751.611 25.5909 1021.07 25.5909 1021.07Z" fill="#668DDB"/>
<path fill-rule="evenodd" clip-rule="evenodd" d="M456.044 651.897L461.01 655.14L435.914 695.148L449.262 705.793L475.917 664.892L480.873 668.134L452.441 711.758C451.987 712.458 451.256 712.932 450.427 713.065C449.607 713.198 448.768 712.977 448.107 712.456L430.149 698.129C428.974 697.19 428.688 695.516 429.487 694.241L456.015 651.945L456.044 651.897Z" fill="#3768BE"/>
<path fill-rule="evenodd" clip-rule="evenodd" d="M67.9051 491.62C66.901 491.102 65.6897 491.203 64.7834 491.877C30.6463 517.275 28.0824 546.308 28.0824 546.308C27.9807 547.39 28.4783 548.441 29.3806 549.046C30.283 549.652 31.444 549.714 32.4065 549.21C33.1055 548.843 34.1303 548.842 35.3436 548.914C37.0457 549.012 39.031 549.38 41.1476 549.903C51.6984 552.51 65.2819 558.961 65.2819 558.961C65.9967 559.299 66.8181 559.339 67.5615 559.068C68.3059 558.799 68.91 558.242 69.2408 557.523C78.5327 537.347 98.7091 522.056 98.7091 522.056C99.3459 521.574 99.7596 520.854 99.8583 520.062C99.956 519.269 99.73 518.471 99.2304 517.847C85.4386 500.62 67.9051 491.62 67.9051 491.62ZM66.8023 497.777C43.678 515.575 36.7238 534.886 34.7335 542.967C36.9548 542.993 39.6609 543.433 42.5683 544.152C50.6835 546.157 60.5175 550.326 65.1546 552.394C73.2767 536.573 87.1702 523.949 92.7284 519.283C82.6012 507.473 70.9853 500.189 66.8023 497.777Z" fill="#3768BE"/>
<path fill-rule="evenodd" clip-rule="evenodd" d="M25.2654 994.366L25.1934 988.442H190.878V994.366H148.613V1021.07H142.69V994.366H135.317V1021.07H129.393V994.366H61.0038V1021.07H55.0803V994.366H25.2654Z" fill="#3768BE"/>
<path fill-rule="evenodd" clip-rule="evenodd" d="M704.398 1331.12L705.474 1336.97L651.107 1352.38L659.311 1372.41L653.595 1374.08L645.371 1354.01L640.839 1355.29L647.898 1375.74L642.212 1377.41L635.133 1356.91L578.475 1372.97L585.237 1394.04L579.551 1395.7L572.769 1374.59L539.893 1383.91L538.481 1378.16L704.398 1331.12Z" fill="#3768BE"/>
<path fill-rule="evenodd" clip-rule="evenodd" d="M590.487 1084.37C589.717 1084.52 589.036 1084.97 588.592 1085.63C588.157 1086.28 587.99 1087.08 588.138 1087.85L597.605 1136.38C597.753 1137.16 598.208 1137.84 598.869 1138.28C599.531 1138.72 600.34 1138.88 601.11 1138.72L647.708 1129.09C648.478 1128.94 649.159 1128.48 649.584 1127.82C650.018 1127.16 650.167 1126.36 650.009 1125.59L639.919 1077.83C639.583 1076.25 638.043 1075.23 636.464 1075.54L590.487 1084.37ZM594.525 1089.63L602.848 1132.31L643.591 1123.9L634.726 1081.9L594.525 1089.63Z" fill="#3768BE"/>
<path fill-rule="evenodd" clip-rule="evenodd" d="M571.572 713.632C577.338 746.55 604.053 848.479 688.235 835.527C717.073 831.084 768.054 805.87 764.481 702.528C760.67 591.857 758.478 514.599 746.937 429.428C745.16 416.243 740.52 403.861 734.922 396.517C729.67 389.636 723.372 390.997 725.81 400.803C714.309 387.072 701.632 387.726 705.473 397.989C705.473 397.989 689.716 391.54 695.492 406.939C695.492 406.939 682.026 403.341 686.873 415.616C691.138 426.404 688.522 464.827 686.478 466.895C683.714 469.678 682.381 456.262 672.183 448.268C668.984 445.767 663.436 444.135 663.564 457.645C663.564 457.645 654.817 600.213 637.017 692.164L571.572 713.632Z" fill="#E0755E"/>
<path fill-rule="evenodd" clip-rule="evenodd" d="M703.835 487.604C702.354 484.541 700.379 481.622 698.533 479.191C695.759 475.534 692.432 472.494 688.799 469.71C688.532 469.502 685.008 467.063 685.008 467.063C686.232 467.762 687.14 465.905 687.269 464.474C687.703 464.769 690.773 466.667 691 466.844C694.88 469.826 698.434 473.091 701.406 477.007C703.055 479.176 704.772 481.705 706.214 484.386C710.775 479.071 717.419 475.251 724.231 474.555C725.228 474.455 726.117 475.177 726.216 476.169C726.314 477.161 725.594 478.047 724.606 478.149C718.15 478.808 711.881 482.712 707.942 487.994C708.771 489.996 709.383 492.029 709.65 494.012C709.817 495.286 709.551 498.596 708.445 500.421C707.863 501.367 707.083 501.984 706.184 502.212C705.316 502.433 704.239 502.336 703.005 501.463C701.307 500.265 700.656 498.356 700.745 496.222C700.843 493.712 702.018 490.883 702.857 489.293C703.163 488.72 703.489 488.157 703.835 487.604ZM705.543 492.008C704.99 493.247 704.417 494.877 704.348 496.371C704.318 497.217 704.407 498.036 705.079 498.511C705.138 498.552 705.217 498.592 705.276 498.626C705.375 498.472 705.523 498.214 705.602 498.019C706.056 496.807 706.165 495.186 706.066 494.492C705.957 493.671 705.78 492.84 705.543 492.008Z" fill="#A52929"/>
<path fill-rule="evenodd" clip-rule="evenodd" d="M695.492 406.938L694.298 402.42C694.298 402.42 704.763 417.846 707.922 449.678C708.06 451.033 707.092 452.252 705.74 452.4C704.387 452.549 703.124 451.575 703.015 450.218C700.863 423.721 692.136 405.855 691.603 406.461L695.492 406.938Z" fill="#A52929" fill-opacity="0.86"/>
<path fill-rule="evenodd" clip-rule="evenodd" d="M705.62 391.753C704.465 393.325 704.711 395.541 705.472 397.989L703.31 397.288C703.31 397.288 716.341 422.885 716.904 448.377C716.934 449.739 718.059 450.82 719.421 450.789C720.784 450.76 721.87 449.629 721.84 448.268C721.169 417.873 705.62 391.753 705.62 391.753Z" fill="#A52929" fill-opacity="0.86"/>
<path fill-rule="evenodd" clip-rule="evenodd" d="M725.395 395.401C725.197 396.399 725.385 398.294 725.81 400.803C724.26 398.41 722.315 396.603 720.123 395.167C720.123 395.167 731.309 430.064 732.306 448.402C732.385 449.762 733.55 450.806 734.902 450.732C736.265 450.658 737.311 449.493 737.232 448.133C736.265 430.402 725.395 395.401 725.395 395.401Z" fill="#A52929" fill-opacity="0.86"/>
<path fill-rule="evenodd" clip-rule="evenodd" d="M624.903 696.138C624.903 696.138 625.466 713.887 626.147 735.23C626.216 737.271 627.865 738.904 629.909 738.948C631.942 738.99 633.66 737.428 633.818 735.392C635.546 712.088 637.017 692.164 637.017 692.164L624.903 696.138Z" fill="#A52929"/>
<path fill-rule="evenodd" clip-rule="evenodd" d="M489.305 457.916L498.575 443.878C498.575 443.878 498.131 443.293 497.4 442.32C487.913 429.717 487.557 412.456 496.522 399.476C509.208 381.088 529.752 359.807 553.861 367.059C553.861 367.059 592.117 381.918 579.727 418.728L578.157 425.528C578.157 425.528 592.275 432.399 579.727 443.878C579.727 443.878 569.825 452.77 561.838 447.487L557.366 493.139C557.366 493.139 506.315 503.992 489.305 457.916Z" fill="#E0755E"/>
<path fill-rule="evenodd" clip-rule="evenodd" d="M498.761 443.752L495.839 448.334C495.839 448.334 499.926 451.743 502.621 453.388C510.114 457.975 521.231 461.901 537.205 461.431C538.834 461.383 540.127 460.016 540.078 458.382C540.028 456.749 538.656 455.461 537.027 455.51C522.574 455.936 512.494 452.485 505.711 448.334C503.164 446.779 498.761 443.752 498.761 443.752Z" fill="#A52929"/>
<path fill-rule="evenodd" clip-rule="evenodd" d="M578.156 425.663L579.587 419.665C579.587 419.665 577.139 418.991 575.658 418.951C572.124 418.856 567.326 420.101 560.168 424.969C558.816 425.888 558.47 427.732 559.388 429.083C560.306 430.435 562.153 430.785 563.505 429.866C569.093 426.061 572.736 424.798 575.5 424.872C576.882 424.909 578.156 425.663 578.156 425.663Z" fill="#A52929"/>
<path fill-rule="evenodd" clip-rule="evenodd" d="M555.62 450.422L561.118 454.625L562.145 447.545L559.608 446.046C558.403 444.944 556.528 445.03 555.422 446.238C554.326 447.445 554.405 449.32 555.62 450.422Z" fill="#A52929"/>
<path fill-rule="evenodd" clip-rule="evenodd" d="M523.548 419.583C520.541 421.52 518.418 425.552 520.957 428.684C522.569 430.67 525.021 431.45 527.734 431.399C531.113 431.336 534.909 429.957 537.223 428.89C538.21 428.433 538.635 427.259 538.184 426.271C537.725 425.282 536.555 424.85 535.567 425.306C533.635 426.198 530.481 427.401 527.656 427.454C526.226 427.481 524.874 427.243 524.025 426.197C523.669 425.764 523.721 425.273 523.921 424.828C524.259 424.053 524.961 423.367 525.68 422.899C526.598 422.309 526.867 421.087 526.269 420.172C525.68 419.257 524.458 418.993 523.548 419.583Z" fill="#A52929"/>
<path fill-rule="evenodd" clip-rule="evenodd" d="M537.222 428.89C542.95 426.243 542.265 420.827 539.969 418.714C538.374 417.252 535.904 416.629 533.209 416.724C529.656 416.851 525.722 418.176 523.547 419.583C522.628 420.173 522.368 421.395 522.958 422.311C523.547 423.226 524.769 423.489 525.679 422.899C527.412 421.784 530.532 420.768 533.348 420.669C534.908 420.613 536.381 420.778 537.299 421.621C538.183 422.435 537.776 424.283 535.566 425.307C534.57 425.763 534.145 426.937 534.596 427.925C535.055 428.914 536.225 429.346 537.222 428.89Z" fill="#A52929"/>
<path fill-rule="evenodd" clip-rule="evenodd" d="M396.04 440.851C396.04 440.851 428.866 435.455 488.999 461.139C489.493 461.349 490.924 462.034 490.924 462.034L489.384 457.879L490.371 456.325C490.371 456.325 489.493 456.019 488.999 455.809C426.556 429.117 394.766 435.066 394.766 435.066C393.167 435.417 392.16 436.998 392.505 438.594C392.861 440.191 394.44 441.203 396.04 440.851Z" fill="black"/>
<path fill-rule="evenodd" clip-rule="evenodd" d="M557.918 487.142L557.346 493.093C557.346 493.093 558.027 493.375 558.402 493.531C572.747 499.584 613.362 520.845 649.979 578.923C650.611 579.934 651.885 581.99 651.885 581.99L652.921 572.338C652.921 572.338 652.339 571.63 651.885 570.939C614.142 513.435 572.994 493.016 559.369 487.518C559.024 487.38 557.918 487.142 557.918 487.142Z" fill="black"/>
<path fill-rule="evenodd" clip-rule="evenodd" d="M363.312 587.232L381.714 576.778C382.998 575.76 383.205 573.896 382.188 572.617C381.171 571.337 379.503 569.859 378.22 570.877L358.747 582.037L363.312 587.232Z" fill="black"/>
<path fill-rule="evenodd" clip-rule="evenodd" d="M368.898 523.246L384.587 605.181L391.557 609.656L374.704 522.073C374.38 520.471 372.816 519.432 371.214 519.756C369.612 520.08 368.574 521.644 368.898 523.246Z" fill="black"/>
<path fill-rule="evenodd" clip-rule="evenodd" d="M550.948 640.037L563.95 722.456L574.711 729.482L556.773 638.967C556.476 637.359 554.936 636.293 553.327 636.589C551.718 636.885 550.652 638.43 550.948 640.037Z" fill="black"/>
<path fill-rule="evenodd" clip-rule="evenodd" d="M548.836 712.559L551.373 638.704C561.492 666.174 566.113 697.429 571.286 727.242C563.694 722.21 556.329 717.505 548.836 712.559Z" fill="black"/>
<path fill-rule="evenodd" clip-rule="evenodd" d="M485.891 210.073C355.686 295.276 296.729 338.85 192.184 456.232C165.75 485.849 159.769 528.476 177.033 564.222C180.669 571.662 185.198 579.399 190.879 587.299C190.88 587.299 190.88 587.3 190.881 587.3C220.739 628.81 277.579 640.225 321.147 613.46C343.84 599.519 363.732 587.299 363.732 587.299L308.173 524.671L516.308 317.773C516.308 317.773 532.775 307.53 534.098 321.618C534.098 321.618 547.742 321.132 545.481 300.071C545.481 300.071 559.46 290.157 551.316 275.362C551.316 275.362 559.638 257.759 545.481 245.666C545.481 245.666 546.379 228.836 528.747 223.703C528.747 223.703 509.259 217.194 489.988 223.703L485.891 210.073Z" fill="#E0755E"/>
<path fill-rule="evenodd" clip-rule="evenodd" d="M307.301 523.66L311.229 528.093L277.698 558.479C276.487 559.577 274.612 559.485 273.514 558.274C272.417 557.062 272.509 555.187 273.72 554.09L307.301 523.66Z" fill="#A52929"/>
<path fill-rule="evenodd" clip-rule="evenodd" d="M545.482 300.809C541.869 294.454 534.938 292.225 527.899 291.674C515.608 290.711 502.734 294.952 502.734 294.952C501.174 295.462 499.506 294.615 498.993 293.062C498.479 291.509 499.328 289.834 500.878 289.324C500.878 289.324 514.946 284.718 528.363 285.768C536.676 286.419 544.663 289.237 549.48 296.069C547.94 297.804 545.482 300.071 545.482 300.071V300.809ZM550.902 275.685C527.712 258.598 496.988 271.661 496.988 271.661C495.478 272.296 493.74 271.588 493.108 270.082C492.477 268.575 493.187 266.837 494.688 266.203C494.688 266.203 527.504 252.504 553.034 269.941C552.669 271.622 551.939 274.34 550.902 275.685ZM545.482 245.882C516.131 233.744 487.402 249.108 487.402 249.108C485.961 249.878 484.164 249.332 483.394 247.89C482.624 246.448 483.167 244.652 484.608 243.882C484.608 243.882 513.801 228.325 544.584 239.203C544.919 240.634 545.699 244.166 545.482 245.882ZM488.37 218.357C488.814 219.844 489.742 223.027 490.038 224.065L476.641 229.329C475.121 229.927 473.393 229.177 472.801 227.656C472.199 226.133 472.949 224.414 474.469 223.816L488.37 218.357Z" fill="#A52929"/>
<path fill-rule="evenodd" clip-rule="evenodd" d="M873.346 315.826C872.991 319.215 871.451 322.371 869.002 324.74C867.127 326.575 864.866 327.736 862.862 325.997C861.489 324.808 859.446 316.849 858.705 313.674C858.705 313.674 856.336 305.897 861.855 297.851C861.855 297.851 850.916 290.004 861.095 278.11C861.095 278.11 854.658 264.924 865.863 257.273C865.863 257.273 858.232 244.545 877.434 232.127C883.11 228.457 900.061 213.424 931.406 234.228L1017.61 291.7L961.932 378.949C961.932 378.949 887.928 307.662 881.649 306.513C881.649 306.513 874.63 302.668 873.346 315.826Z" fill="#A52929"/>
<path fill-rule="evenodd" clip-rule="evenodd" d="M858.43 293.504C862.803 288.92 870.514 282.095 880.643 281.965C887.218 281.88 894.168 283.97 901.76 292.093C903.063 293.486 903.468 295.057 902.076 296.359C900.684 297.661 898.492 297.587 897.189 296.194C891.354 289.951 885.776 287.656 880.722 287.72C872.31 287.829 865.192 294.281 861.905 297.972C859.15 296.082 858.973 295.051 858.43 293.504ZM859.555 271.976C859.674 274.88 859.989 275.476 861.204 277.954C861.204 277.954 867.641 270.967 873.564 268.6C880.554 265.81 890.071 265.436 902.421 271.419C904.139 272.25 906.212 271.53 907.042 269.815C907.871 268.098 906.913 266.934 905.196 266.104C890.466 258.972 879.823 260.592 871.491 263.918C866.574 265.882 859.555 271.976 859.555 271.976ZM864.521 252.147C864.649 255.119 864.916 254.295 865.745 257.207C865.745 257.207 866.476 256.775 866.732 256.57C874.176 250.645 890.189 241.611 909.668 251.243C911.376 252.089 912.965 251.779 913.814 250.07C914.663 248.36 913.567 247.46 911.86 246.615C891.354 236.477 875.243 244.7 865.637 251.362C865.34 251.562 864.521 252.147 864.521 252.147Z" fill="black"/>
<path fill-rule="evenodd" clip-rule="evenodd" d="M658.807 563.872C658.807 563.872 656.744 437.227 677.209 425.012C677.209 425.012 684.288 423.52 685.887 436.659C685.887 436.659 711.21 396.326 727.283 390.193C729.8 389.231 737.343 387.994 735.467 396.92C735.467 396.92 745.112 393.638 746.327 405.887C746.327 405.887 757.325 405.982 755.636 417.69C755.636 417.69 766.299 421.126 760.355 433.167C760.355 433.167 735.388 475.482 752.438 567.977L658.807 563.872Z" fill="#A52929"/>
<path fill-rule="evenodd" clip-rule="evenodd" d="M755.675 417.633C756.258 417.725 758.39 418.428 759.812 420.633C755.863 423.813 744.282 434.596 728.131 461.605C727.43 462.774 725.909 463.156 724.745 462.456C723.57 461.757 723.195 460.241 723.896 459.072C738.912 433.968 750.453 422.153 755.675 417.633ZM684.366 430.239C685.057 431.926 685.61 434.76 685.916 436.667C681.256 444.211 679.094 452.641 679.094 452.641C678.749 453.96 677.406 454.755 676.083 454.415C674.77 454.075 673.97 452.729 674.306 451.41C674.306 451.41 677.278 439.917 683.685 431.132C683.794 430.979 684.228 430.358 684.366 430.239ZM746.059 405.829C746.721 405.773 749.396 405.925 751.489 407.39C746.365 412.416 726.502 432.438 714.704 452.101C714.003 453.269 712.493 453.649 711.318 452.948C710.153 452.248 709.768 450.731 710.469 449.563C721.319 431.471 738.842 413.076 746.059 405.829ZM735.506 396.694C736.374 396.464 740.501 395.744 742.179 397.67C735.061 403.018 717.074 418.954 703.183 445.17C702.541 446.374 701.051 446.834 699.846 446.196C698.642 445.558 698.178 444.063 698.819 442.859C711.16 419.566 726.66 404.127 735.506 396.694Z" fill="black"/>
<path fill-rule="evenodd" clip-rule="evenodd" d="M975.763 419.133C975.763 419.133 936.628 554.859 765.094 591.758C765.094 591.758 777.819 539.011 850.135 497.839L848.496 453.86C848.496 453.86 825.652 460.987 825.336 439.887C825.237 433.962 831.338 431.475 835.761 429.471C835.761 429.471 845.949 449.69 864.717 441.419C872.19 438.122 886.071 419.155 888.727 388.101C888.727 388.101 899.893 392.404 901.117 383.436C901.117 383.436 908.245 401.179 913.635 414.622C917.199 423.482 914.77 433.623 907.583 439.909L912.095 454.448C912.095 454.448 946.895 413.758 975.763 419.133Z" fill="#A52929"/>
<path fill-rule="evenodd" clip-rule="evenodd" d="M891.411 423.383C889.693 424.153 887.956 425.327 886.87 426.716C885.478 428.498 885.014 430.601 886.228 432.842C887.255 434.722 889.051 435.763 891.125 436.106C893.81 436.551 896.949 435.747 898.845 434.477C899.753 433.871 900 432.644 899.388 431.738C898.786 430.832 897.562 430.588 896.653 431.194C895.646 431.869 894.077 432.312 892.606 432.284C891.431 432.261 890.256 431.979 889.703 430.956C889.338 430.291 889.575 429.677 889.989 429.148C890.7 428.227 891.885 427.497 893.02 426.987C894.017 426.54 894.462 425.372 894.017 424.377C893.573 423.383 892.398 422.938 891.411 423.383Z" fill="black"/>
<path fill-rule="evenodd" clip-rule="evenodd" d="M898.845 434.477C899.813 433.834 901.215 432.806 902.182 431.531C903.446 429.859 904.019 427.825 902.874 425.579C902.133 424.137 900.721 423.112 898.905 422.634C896.683 422.05 893.82 422.302 891.412 423.384C890.414 423.83 889.97 424.999 890.414 425.994C890.859 426.988 892.034 427.433 893.021 426.987C894.591 426.282 896.456 426.073 897.898 426.454C898.53 426.62 899.102 426.873 899.359 427.375C899.704 428.051 899.418 428.646 899.033 429.149C898.352 430.048 897.335 430.741 896.654 431.195C895.746 431.801 895.499 433.028 896.111 433.933C896.713 434.84 897.937 435.083 898.845 434.477Z" fill="black"/>
<path fill-rule="evenodd" clip-rule="evenodd" d="M907.631 440.06L908.924 444.249C903.04 449.719 892.645 457.187 879.356 457.744C878.27 457.789 877.342 456.943 877.303 455.854C877.253 454.765 878.103 453.844 879.189 453.799C892.487 453.241 902.606 445.098 907.631 440.06Z" fill="black"/>
<path fill-rule="evenodd" clip-rule="evenodd" d="M914.495 462.42L912.096 454.449C912.096 454.449 913.498 453.051 915.136 451.324L918.256 461.234C918.582 462.274 918.009 463.383 916.963 463.71C915.926 464.038 914.821 463.459 914.495 462.42Z" fill="black"/>
<path fill-rule="evenodd" clip-rule="evenodd" d="M829.334 408.914C820.883 412.362 811.198 413.306 802.204 412.218C782.745 409.862 765.38 397.9 752.496 383.651C743.157 373.323 735.979 361.066 723.826 353.668C707.201 343.553 689.253 350.743 671.532 353.472C641.184 358.144 606.591 351.72 590.252 322.769C585.868 315.019 583.469 306.305 583.084 297.418C582.62 286.806 585.414 276.077 590.054 266.588C604.547 236.929 640.058 216.903 672.628 227.744C688.147 232.908 700.991 244.275 710.893 257.003C719.739 268.375 725.455 281.455 732.05 294.158C735.19 300.199 738.684 308.427 745.042 311.768C752.328 315.596 759.328 309.113 764.284 304.418C773.436 295.753 783.861 285.883 797.011 284.462C811.869 282.857 822.038 294.65 828.81 306.295C841.072 327.386 845.742 349.185 847.104 372.684C850.441 370.447 854.37 368.419 858.971 366.674C858.971 366.674 892.438 357.641 901.116 383.436C901.116 383.436 900.494 393.974 888.726 388.101C888.726 388.101 890.326 435.574 859.81 443.005C854.686 444.251 844.448 445.193 834.211 430.172C834.211 430.172 829.867 420.803 829.334 408.914Z" fill="black"/>
<path d="M1190.6 1039.34V1105.84C1190.6 1105.84 1352.54 1098.48 1384.76 1126.2C1384.76 1126.2 1394.65 1111.06 1358.67 1092.64V991.404" stroke="#668DDB" stroke-width="0.00219619" stroke-miterlimit="2.28659" stroke-linecap="round" stroke-linejoin="round"/>
<path fill-rule="evenodd" clip-rule="evenodd" d="M688.986 1479.32L705.473 1408.95C707.635 1409.37 709.62 1409.81 711.229 1410.32L694.298 1482.57C694.021 1483.75 693.064 1484.63 691.869 1484.81C691.869 1484.81 677.149 1487.09 662.824 1494.65C654.827 1498.87 646.919 1504.72 641.924 1512.85H845.85L859.148 1448.87L864.766 1450.03L851.151 1516.41C850.865 1517.79 849.651 1518.77 848.249 1518.77H637.017C636.02 1518.77 635.082 1518.27 634.539 1517.42C633.987 1516.58 633.908 1515.52 634.312 1514.61C639.476 1503.03 649.644 1494.9 660.06 1489.41C672.055 1483.09 684.297 1480.25 688.986 1479.32Z" fill="#668DDB"/>
<path fill-rule="evenodd" clip-rule="evenodd" d="M1355.7 989.174V630.207C1355.7 590.083 1335.46 552.665 1301.88 530.703C1268.3 508.742 1225.91 505.201 1189.15 521.285C1114.87 553.784 1027.97 594.418 1027.97 594.418C1026.48 595.072 1024.72 594.389 1024.07 592.891C1023.42 591.394 1024.1 589.646 1025.6 588.991C1025.6 588.991 1112.5 548.357 1186.78 515.858C1225.37 498.972 1269.87 502.691 1305.13 525.747C1340.38 548.802 1361.63 588.083 1361.63 630.207V991.405C1361.63 992.027 1361.67 993.695 1361.67 993.695C1361.67 993.695 1360.15 994.06 1359.47 994.248L1191.41 1042.2C1190.53 1042.45 1187.72 1043.16 1187.72 1043.16C1187.72 1043.16 1187.67 1040.37 1187.63 1039.46L1175.63 740.319L1029.05 818.449L865.544 1447.52C865.347 1448.28 864.765 1450.03 864.765 1450.03C864.765 1450.03 862.691 1449.84 861.931 1449.65L708.542 1409.56L705.472 1408.95C701.128 1404.96 768.538 1050.8 792.044 866.192C817.485 666.351 898.4 655.307 899.229 656.337C900.858 656.178 902.31 657.369 902.468 658.995C902.625 660.622 901.431 662.073 899.802 662.232C899.802 662.232 875.871 671.708 856.353 696.072C836.016 721.462 812.677 770.597 800.169 865.412C775.557 1052.09 734.744 1239.92 712.58 1404.49L860.559 1443.16L1023.64 815.704C1023.85 814.895 1024.39 814.223 1025.12 813.828L1177 732.872C1177.9 732.393 1178.99 732.409 1179.86 732.917C1180.75 733.423 1181.32 734.349 1181.36 735.367L1193.4 1035.47L1355.7 989.174Z" fill="#FF7766"/>
<path fill-rule="evenodd" clip-rule="evenodd" d="M850.393 1438.94C849.632 1437.98 848.882 1436.95 848.161 1435.86C840.175 1423.83 834.784 1404.47 834.784 1382.59C834.784 1360.7 840.175 1341.34 848.161 1329.31C854.618 1319.6 862.931 1314.4 871.54 1314.4C880.158 1314.4 888.471 1319.6 894.927 1329.31C895.026 1329.47 895.125 1329.62 895.224 1329.77L889.813 1350.68C888.086 1345.39 885.924 1340.74 883.416 1336.96C879.98 1331.8 876.12 1328.22 871.54 1328.22C866.969 1328.22 863.108 1331.8 859.673 1336.96C852.841 1347.25 848.606 1363.88 848.606 1382.59C848.606 1401.29 852.841 1417.94 859.673 1428.21C862.111 1431.88 864.757 1434.75 867.729 1436.1L866.06 1442.58L850.393 1438.94ZM724.686 1324.04C743 1315.06 761.284 1311.38 774.839 1312.79C786.449 1314 794.909 1318.94 798.908 1326.58C802.906 1334.2 802.166 1343.98 796.558 1354.21C789.618 1366.86 774.967 1380.64 755.587 1390.8C740.097 1398.92 724.44 1403.24 711.438 1403.89L713.758 1389.9C724.37 1388.89 736.81 1385.04 749.17 1378.55C765.736 1369.87 778.501 1358.38 784.435 1347.56C787.416 1342.12 788.798 1337.04 786.666 1332.99C784.543 1328.93 779.577 1327.18 773.417 1326.55C761.136 1325.26 744.431 1329.24 727.865 1337.92C725.792 1339.01 723.768 1340.15 721.823 1341.31L724.686 1324.04ZM748.054 1183.23C750.335 1182.89 752.744 1182.74 755.291 1182.79C769.725 1183.06 788.719 1189.63 806.717 1202.08C824.714 1214.52 837.578 1229.97 842.929 1243.39C847.214 1254.13 846.809 1263.87 842.011 1270.93L841.902 1271.1C837.006 1278.18 828.002 1282.06 816.333 1281.85C801.899 1281.58 782.904 1275 764.907 1262.55C754.284 1255.22 745.448 1246.83 738.893 1238.42L742.299 1217.92C747.284 1228.94 758.174 1241.1 772.765 1251.19C788.157 1261.82 804.249 1267.8 816.589 1268.03C822.789 1268.14 827.933 1267 830.529 1263.24C833.136 1259.47 832.385 1254.27 830.095 1248.5C825.514 1237.04 814.24 1224.09 798.858 1213.46C783.477 1202.81 767.375 1196.84 755.034 1196.61C751.441 1196.54 748.203 1196.9 745.616 1197.94L748.054 1183.23ZM889.744 1235.52C881.284 1234.41 873.741 1228.25 868.558 1217.9C862.092 1204.99 859.1 1185.11 861.756 1163.39C864.421 1141.67 872.132 1123.1 881.521 1112.15C889.113 1103.28 897.998 1099.13 906.547 1100.18C915.087 1101.23 922.709 1107.41 927.941 1117.83C934.407 1130.74 937.399 1150.62 934.733 1172.34C932.068 1194.06 924.367 1212.62 914.969 1223.59C907.386 1232.44 898.491 1236.6 889.952 1235.55L889.744 1235.52ZM904.859 1113.9C900.318 1113.34 896.053 1116.42 892.015 1121.13C883.989 1130.51 877.759 1146.51 875.479 1165.07C873.198 1183.64 875.39 1200.67 880.918 1211.71C883.673 1217.21 887.039 1221.21 891.521 1221.82L891.63 1221.83C896.171 1222.38 900.436 1219.3 904.474 1214.59C912.51 1205.22 918.74 1189.22 921.01 1170.66C923.291 1152.09 921.109 1135.06 915.581 1124.02C912.806 1118.47 909.4 1114.46 904.859 1113.9ZM767.79 1064.32C769.083 1064.72 770.386 1065.12 771.689 1065.56C792.451 1072.46 809.136 1083.68 818.021 1095.06C825.208 1104.25 827.518 1113.77 824.803 1121.95C822.088 1130.12 814.536 1136.37 803.271 1139.43C790.95 1142.78 773.812 1142.39 755.646 1137.48L757.917 1123.77C773.832 1128.31 788.877 1129.03 799.648 1126.09C805.631 1124.47 810.241 1121.93 811.693 1117.58C813.134 1113.25 810.952 1108.45 807.131 1103.57C799.53 1093.84 785.076 1084.57 767.335 1078.68C766.723 1078.47 766.111 1078.27 765.499 1078.08L767.79 1064.32ZM816.125 1057.95C808.652 1053.67 804.022 1045.02 803.242 1033.38C802.284 1018.98 807.22 999.49 818.09 980.505C828.95 961.511 843.245 947.373 856.158 940.907C866.583 935.684 876.387 935.299 883.86 939.574C891.334 943.849 895.964 952.487 896.744 964.127C897.711 978.541 892.765 998.019 881.896 1017.01C871.036 1036.01 856.741 1050.14 843.827 1056.61C833.402 1061.83 823.599 1062.22 816.125 1057.95ZM968.201 1047.53C965.654 1045.99 963.126 1044.04 960.649 1041.7C949.818 1031.43 939.581 1013.04 933.864 990.753C928.148 968.471 928.267 947.423 932.808 933.206C936.51 921.626 943.293 914.251 951.635 912.109C959.987 909.966 969.474 913.175 978.291 921.537C984.175 927.115 989.871 935.082 994.778 944.757L989.052 966.911C983.977 951.628 976.672 939.051 968.783 931.567C964.104 927.135 959.493 924.361 955.071 925.496C950.648 926.631 947.943 931.281 945.978 937.412C942.029 949.753 942.296 967.997 947.251 987.317C952.207 1006.64 960.767 1022.76 970.156 1031.67C970.738 1032.22 971.321 1032.75 971.893 1033.24L968.201 1047.53ZM876.999 951.569C873.02 949.298 867.897 950.483 862.348 953.267C851.321 958.796 839.375 971.136 830.085 987.367C820.795 1003.6 816.214 1020.14 817.033 1032.46C817.448 1038.65 819.018 1043.68 822.987 1045.95C826.965 1048.22 832.089 1047.04 837.637 1044.25C848.665 1038.72 860.611 1026.38 869.901 1010.15C879.191 993.922 883.771 977.366 882.952 965.055C882.537 958.865 880.968 953.84 876.999 951.569ZM1189.54 992.234C1197.27 988.314 1204.75 985.777 1211.42 984.741C1222.94 982.954 1232.39 985.59 1238.2 991.948C1244.01 998.296 1245.78 1007.94 1242.96 1019.26C1242.22 1022.24 1241.17 1025.34 1239.79 1028.52L1221.24 1034.03C1225.3 1027.76 1228.14 1021.57 1229.55 1015.93C1231.05 1009.91 1231.09 1004.64 1228 1001.27C1224.91 997.891 1219.66 997.447 1213.53 998.404C1206.47 999.5 1198.43 1002.67 1190.21 1007.61L1189.54 992.234ZM1357.76 894.773L1357.84 909.364C1348.18 913.155 1337.66 919.849 1327.82 928.843C1314 941.46 1304.59 955.824 1301.6 967.799C1300.1 973.812 1300.06 979.074 1303.15 982.46C1306.24 985.836 1311.49 986.271 1317.61 985.323C1329.62 983.457 1344.5 975.569 1358.14 963.278L1358.24 981.068C1344.92 991.029 1331.15 997.2 1319.73 998.977C1308.21 1000.76 1298.76 998.138 1292.95 991.78C1287.14 985.422 1285.37 975.776 1288.19 964.453C1291.68 950.444 1302.33 933.404 1318.5 918.644C1331.37 906.876 1345.38 898.712 1357.76 894.773ZM1182.01 818.992C1183.24 817.817 1184.59 816.8 1186.05 815.951C1193.49 811.627 1203.29 811.943 1213.76 817.096C1226.71 823.474 1241.11 837.512 1252.1 856.428C1263.1 875.344 1268.18 894.793 1267.31 909.206C1266.62 920.856 1262.04 929.524 1254.59 933.858C1247.15 938.182 1237.34 937.866 1226.88 932.713C1213.93 926.325 1199.54 912.296 1188.54 893.381C1187.27 891.189 1186.08 888.987 1184.96 886.796L1182.01 818.992ZM1239.93 862.993C1230.56 847.01 1218.64 834.906 1207.65 829.496C1202.09 826.751 1196.95 825.606 1193 827.896C1189.04 830.197 1187.5 835.232 1187.13 841.422C1186.39 853.743 1191.09 870.259 1200.49 886.43C1209.89 902.602 1221.92 914.853 1232.99 920.313C1238.56 923.057 1243.69 924.203 1247.65 921.902C1251.6 919.602 1253.14 914.577 1253.52 908.387C1254.25 896.066 1249.56 879.54 1240.15 863.378L1239.93 862.993ZM808.958 816.198C816.599 820.285 824.408 825.636 831.882 832.171C848.349 846.575 859.377 863.378 863.168 877.318C866.228 888.573 864.678 898.258 859.001 904.734C853.335 911.22 843.946 914.054 832.385 912.514C821.516 911.072 808.444 905.711 795.571 896.905L798.098 881.662C810.567 891.327 823.559 897.399 834.212 898.811C840.352 899.63 845.585 899.077 848.606 895.642C851.617 892.196 851.459 886.934 849.83 880.951C846.592 869.035 836.857 854.888 822.779 842.577C817.468 837.937 811.989 833.939 806.559 830.681L808.958 816.198ZM909.647 872.096C889.557 862.618 874.067 849.379 866.426 836.959C860.235 826.899 859.021 817.106 862.694 809.317C866.366 801.527 874.699 796.235 886.398 794.607C900.722 792.612 920.596 796.068 940.528 805.377L941.002 805.595C961.093 815.062 976.573 828.311 984.224 840.731C990.404 850.791 991.628 860.584 987.956 868.374C984.283 876.163 975.951 881.455 964.252 883.084C949.808 885.088 929.738 881.563 909.647 872.096ZM1357.58 862.144C1356.83 862.944 1356.07 863.724 1355.31 864.444C1346.88 872.51 1337.63 875.768 1329.23 873.883C1320.83 871.997 1313.86 865.096 1309.68 854.207C1304.53 840.721 1303.5 820.65 1308.3 799.296C1313.09 777.942 1322.58 760.231 1333.02 750.249C1340.72 742.879 1349.1 739.527 1356.89 740.437L1356.98 754.554C1356.68 754.455 1356.38 754.366 1356.07 754.297C1351.61 753.29 1347.06 755.946 1342.58 760.231C1333.66 768.77 1325.88 784.073 1321.78 802.327C1317.69 820.571 1318.18 837.739 1322.59 849.261C1324.8 855.056 1327.79 859.39 1332.26 860.397C1336.72 861.394 1341.27 858.748 1345.75 854.463C1350 850.396 1353.99 844.798 1357.44 838.075L1357.58 862.144ZM935.108 818.093C917.851 809.958 900.693 806.572 888.293 808.3C882.083 809.159 877.147 811.074 875.192 815.21C873.247 819.347 874.906 824.372 878.194 829.713C884.709 840.296 898.077 851.284 915.136 859.4L915.541 859.597C932.788 867.732 949.947 871.118 962.347 869.391C968.566 868.532 973.502 866.616 975.447 862.48C977.402 858.343 975.734 853.318 972.446 847.977C965.891 837.315 952.356 826.228 935.108 818.093ZM1074.49 791.131C1067.14 771.762 1065.2 752.915 1067.97 739.386C1070.31 727.958 1076.08 720.021 1084.06 716.795C1092.04 713.568 1101.7 715.274 1111.32 721.864C1121.24 728.652 1131.38 740.82 1139.24 756.4L1127.06 762.936C1120.42 749.591 1111.98 739.061 1103.52 733.269C1098.4 729.766 1093.48 727.894 1089.24 729.609C1084.99 731.324 1082.76 736.088 1081.51 742.163C1079.23 753.3 1081 768.632 1086.78 784.537L1074.49 791.131ZM876.969 669.369C882.251 672.95 887.523 677.148 892.607 681.919C908.561 696.894 918.996 714.075 922.294 728.133C924.959 739.489 923.064 749.111 917.17 755.393C911.276 761.672 901.799 764.17 890.297 762.225C876.051 759.826 858.251 750.506 842.287 735.527C839.069 732.499 836.068 729.381 833.303 726.217C835.505 721.383 837.756 716.897 840.036 712.728C843.442 717.05 847.372 721.337 851.755 725.449C865.389 738.25 880.425 746.544 892.597 748.601C898.709 749.633 903.961 749.267 907.09 745.93C910.22 742.593 910.259 737.329 908.838 731.293C906.014 719.277 896.783 704.797 883.15 691.997C877.463 686.666 871.549 682.116 865.685 678.474C869.604 674.785 873.396 671.795 876.969 669.369ZM1250.46 679.443C1264.95 663.322 1281.7 652.597 1295.56 648.966C1306.85 646.009 1316.51 647.662 1322.94 653.392C1329.37 659.122 1332.11 668.537 1330.46 680.085C1328.43 694.381 1319.56 712.42 1305 728.753C1290.44 745.086 1273.53 755.956 1259.56 759.609C1248.27 762.57 1238.61 760.922 1232.18 755.186C1225.75 749.457 1223.01 740.041 1224.66 728.493C1226.69 714.197 1235.56 696.157 1250.12 679.825L1250.46 679.443ZM956.857 687.871C959.543 666.155 967.273 647.601 976.691 636.647C984.283 627.797 993.178 623.66 1001.73 624.718C1010.27 625.776 1017.88 631.959 1023.09 642.396C1029.55 655.316 1032.51 675.194 1029.82 696.91C1027.13 718.627 1019.4 737.18 1009.99 748.135C1002.39 756.983 993.504 761.119 984.955 760.063C976.415 759.006 968.803 752.826 963.59 742.386C957.134 729.466 954.172 709.587 956.857 687.871ZM1294.68 719.555C1307.13 705.594 1315.04 690.351 1316.78 678.132C1317.66 671.994 1317.15 666.753 1313.74 663.707C1310.32 660.662 1305.06 660.764 1299.07 662.336C1287.12 665.464 1272.89 675.063 1260.44 689.023C1247.99 702.983 1240.08 718.226 1238.34 730.446C1237.46 736.584 1237.96 741.824 1241.37 744.87C1244.8 747.916 1250.06 747.814 1256.05 746.242C1268 743.114 1282.23 733.516 1294.68 719.555ZM1016.16 694.776C1018.37 676.385 1016.2 659.527 1010.73 648.571C1007.96 643.024 1004.57 638.998 1000.02 638.435C995.479 637.872 991.214 640.949 987.166 645.653C979.13 655.016 972.871 671.009 970.57 689.57C968.28 708.133 970.442 725.167 975.951 736.211C978.725 741.758 982.111 745.784 986.653 746.347C991.194 746.91 995.469 743.832 999.507 739.129C1007.55 729.766 1013.8 713.773 1016.1 695.211L1016.16 694.776ZM1119.16 683.922C1102.36 670.241 1090.83 654.03 1086.52 640.363C1083.02 629.237 1084.19 619.5 1089.6 612.802C1095.01 606.103 1104.28 602.902 1115.9 603.985C1130.28 605.325 1148.73 613.299 1165.75 627.048C1182.78 640.796 1194.46 657.155 1198.79 670.929C1202.3 682.056 1201.11 691.793 1195.7 698.491C1190.29 705.19 1181.02 708.391 1169.41 707.308C1155.03 705.967 1136.59 697.993 1119.56 684.245L1119.16 683.922ZM1157.07 637.8C1142.52 626.049 1126.91 618.892 1114.62 617.747C1108.45 617.17 1103.24 617.926 1100.36 621.486C1097.48 625.047 1097.85 630.299 1099.7 636.213C1103.38 647.895 1113.53 661.527 1127.9 673.217L1128.24 673.492C1142.8 685.244 1158.4 692.4 1170.7 693.546C1176.87 694.122 1182.08 693.367 1184.95 689.807C1187.82 686.246 1187.47 680.994 1185.6 675.08C1181.9 663.307 1171.62 649.552 1157.07 637.8ZM1303.69 528.857C1320.86 539.751 1332.7 553.827 1340.73 566.766C1339.5 569.487 1337.86 572.228 1335.79 574.947C1327.07 586.45 1310.55 597.911 1289.89 605.111C1269.22 612.312 1249.17 613.595 1235.18 610.007C1223.88 607.108 1216.23 600.967 1213.4 592.837C1210.57 584.706 1212.74 575.142 1219.79 565.849C1228.52 554.345 1245.04 542.885 1265.7 535.684C1279.11 531.008 1292.27 528.829 1303.69 528.857ZM1226.46 588.289C1224.94 583.966 1227.06 579.144 1230.8 574.204C1238.26 564.371 1252.58 554.891 1270.24 548.736C1287.9 542.582 1305.02 541.111 1316.98 544.177C1322.98 545.718 1327.63 548.187 1329.13 552.508C1330.64 556.829 1328.53 561.653 1324.78 566.592C1317.32 576.425 1303.01 585.905 1285.34 592.06C1267.68 598.214 1250.57 599.685 1238.61 596.619C1232.61 595.078 1227.96 592.61 1226.46 588.289ZM1165.22 528.991C1168.15 530.976 1170.76 533.058 1173.04 535.2C1181.5 543.224 1185.2 552.306 1183.73 560.79C1182.26 569.272 1175.7 576.575 1165.03 581.271C1151.81 587.085 1131.81 589.08 1110.25 585.334C1095.37 582.749 1082.11 577.841 1071.88 571.782L1087.84 564.469C1095.1 567.626 1103.52 570.137 1112.62 571.717C1131.04 574.918 1148.17 573.588 1159.46 568.62C1165.14 566.123 1169.32 562.932 1170.1 558.423C1170.89 553.915 1168.03 549.498 1163.53 545.234C1159.97 541.872 1155.37 538.74 1149.97 535.983L1165.22 528.991Z" fill="#FF7B6B"/>
<path fill-rule="evenodd" clip-rule="evenodd" d="M658.232 562.689L759.227 567.877L764.134 588.606C764.134 588.606 905.804 575.414 975.642 418.348L1005.43 424.668L961.81 377.798L1017.03 290.659C1017.03 290.659 1215.97 438.042 1219.97 521.954C1219.97 521.954 1220.03 522.873 1220.08 524.523C1220.68 548.945 1208.93 572.022 1188.82 585.891C1168.71 599.761 1142.96 602.55 1120.34 593.309C1084.02 578.465 1034.8 558.353 1034.8 558.353C1034.8 558.353 1043.93 579.03 1042.18 588.868L894.608 667.598C894.608 667.598 863.164 662.542 844.051 633.921C844.051 633.921 868.604 733.502 805.391 807.341C787.265 828.537 758.092 836.593 731.663 827.708C710.299 820.482 688.955 800.549 679.625 752.895C679.625 752.895 654.44 646.024 658.232 562.689Z" fill="#FFD274"/>
<path fill-rule="evenodd" clip-rule="evenodd" d="M784.599 734.786C784.559 734.276 784.441 732.736 784.263 731.189C781.953 710.789 764.202 588.666 764.202 588.666L771.054 587.766C771.054 587.766 788.824 709.998 791.124 730.413C791.391 732.696 791.519 734.236 791.529 734.897C791.539 735.546 791.44 735.973 791.381 736.184C790.957 737.681 789.969 738.218 789.347 738.472C788.528 738.812 787.649 738.857 786.711 738.475C785.221 737.863 784.382 736.318 784.599 734.786ZM787.116 731.943C787.827 731.75 788.597 731.78 789.328 732.079C788.558 731.762 787.817 731.743 787.116 731.943Z" fill="#DE735A"/>
<path fill-rule="evenodd" clip-rule="evenodd" d="M1005.78 424.619L994.134 422.478L1122.32 555.678C1123.64 557.052 1125.82 557.094 1127.2 555.772C1128.58 554.449 1128.62 552.26 1127.29 550.886L1005.78 424.619Z" fill="#DE735A"/>
<path fill-rule="evenodd" clip-rule="evenodd" d="M1033.91 558.109C1026.51 539.941 1016.5 523.327 1016.5 523.327C1015.52 521.692 1016.05 519.567 1017.69 518.585C1019.32 517.602 1021.44 518.131 1022.43 519.765C1022.43 519.765 1034.95 540.621 1042.63 561.522L1033.91 558.109Z" fill="#DE735A"/>
<path fill-rule="evenodd" clip-rule="evenodd" d="M290.605 233.079L304.482 217.528L327.703 252.012L313.317 263.604L290.605 233.079ZM326.849 184.873L349.976 216.503L363.947 206.222L341.262 169.402L326.849 184.873Z" fill="#FD4C3D"/>
<path fill-rule="evenodd" clip-rule="evenodd" d="M1068.06 144.086L1106.81 111.24L1115.78 129.464L1077.07 157.549L1068.06 144.086ZM1023.33 119.264L1045.14 77.957L1060.43 91.6028L1038.2 124.034L1023.33 119.264Z" fill="#FD4C3D"/>
</svg>
